<?xml version="1.0" encoding="iso-8859-1"?>
<!-- Uploaded to: SVG Repo, www.svgrepo.com, Generator: SVG Repo Mixer Tools -->
<!DOCTYPE svg PUBLIC "-//W3C//DTD SVG 1.1//EN" "http://www.w3.org/Graphics/SVG/1.1/DTD/svg11.dtd">
<svg fill="#000000" version="1.1" id="Capa_1" xmlns="http://www.w3.org/2000/svg" xmlns:xlink="http://www.w3.org/1999/xlink" 
	 width="800px" height="800px" viewBox="0 0 96.588 96.589"
	 xml:space="preserve">
<g>
	<g>
		<path d="M54.97,2.975C54.97,1.334,53.634,0,51.994,0s-2.974,1.334-2.969,2.898c-0.094,0.462-2.438,8.033-3.993,13.01
			c-0.042,0.135-0.012,0.282,0.06,0.404c0.071,0.121,0.204,0.209,0.341,0.239c0.21,0.045,0.589,0.437,0.521,1.599
			c-0.118,2.007,0.221,9.065,0.235,9.365c0.013,0.267,0.232,0.476,0.499,0.476h3.89c0.275,0,0.5-0.224,0.5-0.5l-0.006-9.262
			c-0.002-0.026-0.342-2.597,0.744-3.842c0.387-0.442,0.906-0.658,1.59-0.658c0.154,0,0.3-0.071,0.395-0.19
			c0.099-0.121,0.13-0.279,0.093-0.429l-1.765-7.164C53.708,5.875,54.97,4.567,54.97,2.975z M51.994,4.949
			c-0.271,0-0.578,0.121-0.666,0.157c-0.227,0.096-0.35,0.342-0.291,0.581l1.746,7.092c-0.693,0.117-1.271,0.437-1.721,0.953
			c-1.387,1.591-0.996,4.511-0.982,4.565v8.692h-2.912c-0.075-1.651-0.312-7.122-0.214-8.781c0.086-1.475-0.411-2.131-0.834-2.421
			c3.9-12.498,3.9-12.72,3.9-12.813c0-1.089,0.885-1.975,1.975-1.975c1.089,0,1.977,0.886,1.977,1.975
			C53.97,4.063,53.083,4.949,51.994,4.949z"/>
		<path d="M42.714,13.109c0,0.764,0.621,1.384,1.384,1.384c0.763,0,1.384-0.62,1.384-1.384c0-0.763-0.621-1.384-1.384-1.384
			C43.335,11.726,42.714,12.348,42.714,13.109z M44.098,12.727c0.212,0,0.384,0.172,0.384,0.384c0,0.211-0.172,0.384-0.384,0.384
			c-0.212,0-0.384-0.172-0.384-0.384C43.714,12.898,43.886,12.727,44.098,12.727z"/>
		<path d="M43.598,9.516c0,0.763,0.621,1.384,1.384,1.384s1.384-0.621,1.384-1.384c0-0.763-0.621-1.384-1.384-1.384
			S43.598,8.752,43.598,9.516z M44.981,9.131c0.212,0,0.384,0.172,0.384,0.384c0,0.212-0.172,0.384-0.384,0.384
			s-0.384-0.172-0.384-0.384C44.598,9.304,44.77,9.131,44.981,9.131z"/>
		<path d="M44.6,5.86c0,0.698,0.567,1.267,1.266,1.267c0.699,0,1.267-0.568,1.267-1.267c0-0.697-0.569-1.266-1.267-1.266
			C45.167,4.595,44.6,5.164,44.6,5.86z M45.865,5.595c0.147,0,0.267,0.119,0.267,0.266c0,0.293-0.532,0.295-0.532,0
			C45.6,5.714,45.719,5.595,45.865,5.595z"/>
		<path d="M46.868,0.882c-0.796,0-1.443,0.646-1.443,1.442c0,0.797,0.647,1.443,1.443,1.443c0.796,0,1.443-0.646,1.443-1.443
			C48.311,1.529,47.664,0.882,46.868,0.882z M46.868,2.77c-0.244,0-0.443-0.199-0.443-0.443c0-0.243,0.199-0.442,0.443-0.442
			c0.244,0,0.443,0.199,0.443,0.442C47.311,2.569,47.111,2.77,46.868,2.77z"/>
		<path d="M31.369,27.577c1.916,0,3.476-1.375,3.476-3.063c0-1.688-1.56-3.062-3.476-3.062H9.798c-0.2,0-0.381,0.12-0.46,0.305
			c-0.078,0.184-0.04,0.396,0.099,0.542l4.97,5.189l-4.966,5.076c-0.141,0.145-0.182,0.358-0.104,0.543
			c0.078,0.186,0.26,0.307,0.461,0.307h9.666v8.428c0,1.981,1.612,3.594,3.595,3.594h22.396l0.021,13.043
			c-2.242,0.567-4.078-0.181-5.182-2.229c-1.407-2.611-1.142-3.207-1.041-3.433c0.251-0.563,0.029-0.885-0.498-1.313
			c-0.253-0.207-0.547-0.313-0.852-0.313c-1.629,0-3.156,3.162-3.265,5.75c-0.117,2.813,0.16,6.537,1.032,8.461
			c0.337,1.09,0.884,2.096,1.672,3.067c1.941,2.402-0.541,7.14-1.602,9.158c-0.179,0.34-0.323,0.617-0.412,0.813
			c-0.653,1.432-2.367,7.477-2.45,7.772c-0.021,0.11-0.505,2.771,0.932,5.01c1.51,3.16,7.679,5.367,15.001,5.367
			c7.319,0,13.487-2.207,14.969-5.313c1.469-2.295,0.981-4.953,0.953-5.104c-0.073-0.256-1.787-6.301-2.44-7.731
			c-0.089-0.193-0.23-0.472-0.412-0.813c-1.062-2.021-3.543-6.754-1.603-9.156c2.242-2.774,2.104-5.293,2.021-6.797
			c-0.015-0.229-0.022-0.438-0.022-0.623c0-1.603-0.782-2.771-2.043-3.049c-0.193-0.043-0.353-0.063-0.492-0.063
			c-0.807,0-1.18,0.533-2.287,2.121c-0.335,0.479-0.747,1.068-1.271,1.791c-0.63,0.869-1.295,1.312-1.979,1.312
			c-0.973,0-1.794-0.867-2.065-1.191l0.026-16.533h21.365c1.979,0,3.595-1.612,3.595-3.594v-8.429h9.665
			c0.201,0,0.385-0.121,0.461-0.307c0.078-0.185,0.037-0.398-0.104-0.543l-4.967-5.076l4.971-5.189
			c0.139-0.146,0.177-0.358,0.099-0.542c-0.077-0.185-0.261-0.305-0.46-0.305H65.225c-1.916,0-3.479,1.375-3.479,3.063
			s1.562,3.063,3.479,3.063h4.979v3.155H26.387v-3.155L31.369,27.577L31.369,27.577z M25.887,31.732h44.818
			c0.276,0,0.5-0.224,0.5-0.5v-4.155c0-0.275-0.224-0.5-0.5-0.5h-5.48c-1.363,0-2.477-0.926-2.477-2.063
			c0-1.137,1.11-2.062,2.477-2.062h20.397l-4.494,4.694c-0.188,0.195-0.186,0.502,0.004,0.695l4.474,4.572h-8.978
			c-0.274,0-0.5,0.224-0.5,0.5v8.928c0,1.431-1.164,2.594-2.596,2.594H51.669c-0.274,0-0.5,0.223-0.5,0.499l-0.028,17.209
			c0,0.104,0.032,0.207,0.098,0.293c0.052,0.069,1.271,1.727,2.973,1.727c1.021,0,1.959-0.582,2.788-1.727
			c0.526-0.728,0.938-1.322,1.278-1.806c0.896-1.287,1.192-1.692,1.468-1.692c0.065,0,0.155,0.014,0.274,0.041
			c0.787,0.174,1.26,0.948,1.26,2.069c0,0.199,0.013,0.427,0.024,0.679c0.078,1.446,0.199,3.635-1.802,6.112
			c-2.354,2.914,0.343,8.056,1.493,10.25c0.168,0.318,0.305,0.58,0.389,0.763c0.623,1.362,2.369,7.526,2.377,7.547
			c0.005,0.022,0.429,2.387-0.852,4.393c-1.328,2.781-7.258,4.797-14.098,4.797c-6.843,0-12.771-2.016-14.128-4.85
			c-1.243-1.945-0.83-4.295-0.832-4.295c0.018-0.063,1.765-6.228,2.388-7.59c0.083-0.185,0.22-0.441,0.388-0.765
			c1.151-2.192,3.848-7.336,1.493-10.25c-0.707-0.875-1.195-1.771-1.524-2.813c-0.813-1.811-1.066-5.438-0.957-8.051
			c0.101-2.426,1.506-4.791,2.265-4.791c0.047,0,0.12,0.008,0.219,0.09c0.098,0.08,0.16,0.136,0.199,0.174
			c-0.262,0.613-0.388,1.525,1.092,4.271c1.31,2.434,3.247,2.943,4.642,2.943c0.665,0,1.361-0.111,2.07-0.332
			c0.209-0.064,0.352-0.26,0.352-0.479l-0.023-13.923c0-0.276-0.225-0.499-0.5-0.499H23.059c-1.431,0-2.595-1.164-2.595-2.594
			v-8.929c0-0.275-0.224-0.5-0.5-0.5h-8.978l4.474-4.571c0.188-0.193,0.19-0.5,0.004-0.695l-4.495-4.694h20.399
			c1.365,0,2.476,0.927,2.476,2.063c0,1.136-1.11,2.063-2.476,2.063h-5.481c-0.276,0-0.5,0.225-0.5,0.5v4.155
			C25.387,31.508,25.61,31.732,25.887,31.732z"/>
		<path d="M34.677,41.19c0.017,0.001,0.034,0.002,0.051,0.002c0.253,0,0.471-0.191,0.496-0.45l0.286-2.854l1.355,3.01
			c0.005,0.011,0.016,0.015,0.022,0.025c0.033,0.063,0.08,0.117,0.14,0.161c0.018,0.013,0.032,0.026,0.052,0.037
			c0.012,0.008,0.02,0.019,0.033,0.024c0.068,0.032,0.14,0.046,0.21,0.046c0.069,0,0.139-0.014,0.205-0.044
			c0.014-0.006,0.022-0.018,0.035-0.024c0.019-0.012,0.034-0.024,0.052-0.037c0.059-0.044,0.105-0.097,0.139-0.158
			c0.006-0.011,0.018-0.016,0.023-0.026l1.51-3.264l0.549,3.14c0.042,0.243,0.253,0.414,0.491,0.414
			c0.029,0,0.058-0.002,0.087-0.007c0.272-0.048,0.454-0.307,0.406-0.579l-0.824-4.715c-0.003-0.014-0.011-0.025-0.015-0.038
			c-0.009-0.035-0.023-0.068-0.039-0.1c-0.014-0.026-0.027-0.052-0.045-0.074c-0.02-0.027-0.044-0.049-0.069-0.071
			c-0.025-0.021-0.05-0.041-0.078-0.057c-0.013-0.007-0.022-0.021-0.035-0.026c-0.016-0.008-0.033-0.006-0.049-0.012
			c-0.032-0.011-0.063-0.02-0.097-0.023c-0.035-0.005-0.068-0.005-0.102-0.003c-0.016,0.001-0.031-0.004-0.047-0.001
			c-0.014,0.003-0.025,0.012-0.038,0.016c-0.035,0.009-0.068,0.021-0.1,0.039c-0.027,0.014-0.051,0.026-0.075,0.045
			c-0.026,0.02-0.048,0.042-0.07,0.067s-0.041,0.05-0.058,0.079c-0.008,0.013-0.02,0.022-0.027,0.036l-1.721,3.72l-1.672-3.715
			c-0.009-0.02-0.025-0.033-0.036-0.05c-0.018-0.03-0.036-0.058-0.06-0.084c-0.022-0.023-0.046-0.041-0.072-0.061
			c-0.026-0.019-0.052-0.036-0.082-0.051c-0.031-0.014-0.062-0.021-0.095-0.028c-0.021-0.006-0.039-0.017-0.061-0.02
			c-0.011-0.001-0.02,0.003-0.031,0.003c-0.033-0.001-0.065,0.004-0.099,0.01c-0.032,0.006-0.063,0.011-0.093,0.021
			c-0.01,0.004-0.021,0.003-0.032,0.007c-0.021,0.01-0.036,0.027-0.055,0.039c-0.027,0.017-0.052,0.033-0.075,0.054
			c-0.026,0.024-0.047,0.052-0.067,0.08c-0.017,0.024-0.032,0.046-0.045,0.073c-0.016,0.034-0.025,0.069-0.033,0.105
			c-0.004,0.019-0.015,0.034-0.017,0.055l-0.472,4.715C34.202,40.917,34.402,41.161,34.677,41.19z"/>
		<path d="M45.512,41.484c1.218,0,2.209-0.991,2.209-2.209v-3.3c0-0.276-0.224-0.5-0.5-0.5c-0.276,0-0.5,0.224-0.5,0.5v3.3
			c0,0.667-0.542,1.209-1.209,1.209s-1.209-0.542-1.209-1.209v-3.3c0-0.276-0.224-0.5-0.5-0.5c-0.276,0-0.5,0.224-0.5,0.5v3.3
			C43.303,40.495,44.294,41.484,45.512,41.484z"/>
		<path d="M51.682,40.301c-0.457,0-0.83-0.373-0.83-0.831c0-0.276-0.227-0.5-0.5-0.5c-0.275,0-0.5,0.224-0.5,0.5
			c0,1.009,0.819,1.831,1.83,1.831c1.01,0,1.829-0.821,1.829-1.831c0-0.771-0.483-1.462-1.264-1.738l-0.85-0.202
			c-0.328-0.119-0.551-0.433-0.551-0.781c0-0.458,0.371-0.831,0.83-0.831c0.457,0,0.83,0.373,0.83,0.831c0,0.275,0.227,0.5,0.5,0.5
			c0.274,0,0.5-0.225,0.5-0.5c0-1.01-0.82-1.831-1.83-1.831s-1.83,0.82-1.83,1.831c0,0.77,0.484,1.462,1.264,1.737l0.852,0.202
			c0.327,0.119,0.549,0.434,0.549,0.782C52.514,39.929,52.141,40.301,51.682,40.301z"/>
		<path d="M56.429,40.947c0.275,0,0.5-0.224,0.5-0.5v-4.472c0-0.276-0.225-0.5-0.5-0.5c-0.274,0-0.5,0.224-0.5,0.5v4.472
			C55.929,40.725,56.152,40.947,56.429,40.947z"/>
		<path d="M61.645,41.102c0.955,0,1.814-0.639,2.252-1.667c0.105-0.254-0.013-0.548-0.267-0.655
			c-0.253-0.106-0.549,0.012-0.655,0.267c-0.273,0.651-0.785,1.057-1.33,1.057c-0.847,0-1.533-0.935-1.533-2.084
			s0.688-2.085,1.533-2.085c0.476,0,0.933,0.312,1.224,0.833c0.136,0.242,0.44,0.327,0.682,0.193
			c0.239-0.135,0.326-0.439,0.19-0.681c-0.471-0.843-1.254-1.346-2.096-1.346c-1.396,0-2.533,1.384-2.533,3.085
			C59.111,39.717,60.248,41.102,61.645,41.102z"/>
		<path d="M68.406,39.533c0.838,0,1.52-0.681,1.52-1.517c0-0.837-0.682-1.518-1.52-1.518c-0.836,0-1.52,0.681-1.52,1.518
			C66.887,38.853,67.57,39.533,68.406,39.533z M68.406,37.5c0.285,0,0.52,0.231,0.52,0.518c0,0.287-0.229,0.517-0.52,0.517
			c-0.287,0-0.52-0.231-0.52-0.517C67.887,37.732,68.122,37.5,68.406,37.5z"/>
		<path d="M28.45,39.533c0.837,0,1.518-0.681,1.518-1.517c0-0.837-0.681-1.518-1.518-1.518c-0.836,0-1.517,0.681-1.517,1.518
			C26.934,38.853,27.614,39.533,28.45,39.533z M28.45,37.5c0.285,0,0.518,0.231,0.518,0.518c0,0.287-0.232,0.517-0.518,0.517
			c-0.286,0-0.517-0.231-0.517-0.517C27.934,37.732,28.166,37.5,28.45,37.5z"/>
		<path d="M45.038,69.882l-3.536,10.697c-0.05,0.149-0.025,0.315,0.067,0.444c0.092,0.129,0.24,0.209,0.398,0.211l4.572,0.076
			l-2.83,8.816c-0.073,0.229,0.026,0.479,0.237,0.592c0.075,0.041,0.157,0.062,0.239,0.062c0.146,0,0.288-0.063,0.386-0.184
			L55.62,77.16c0.123-0.148,0.149-0.354,0.065-0.531c-0.082-0.174-0.26-0.287-0.451-0.287h-4.998l2.543-6.113
			c0.062-0.153,0.047-0.33-0.047-0.471c-0.092-0.139-0.248-0.223-0.416-0.223h-6.808C45.296,69.54,45.104,69.677,45.038,69.882z
			 M51.568,70.54l-2.541,6.114c-0.063,0.154-0.047,0.33,0.045,0.47c0.094,0.142,0.25,0.226,0.416,0.226h4.688l-8.716,10.598
			l2.236-6.969c0.048-0.15,0.022-0.314-0.07-0.443c-0.092-0.129-0.239-0.207-0.397-0.209l-4.565-0.076l3.209-9.709L51.568,70.54
			L51.568,70.54z"/>
	</g>
</g>
</svg>